<?xml version="1.0" encoding="utf-8"?>
<!-- Generator: Adobe Illustrator 16.0.0, SVG Export Plug-In . SVG Version: 6.00 Build 0)  -->
<!DOCTYPE svg PUBLIC "-//W3C//DTD SVG 1.1//EN" "http://www.w3.org/Graphics/SVG/1.1/DTD/svg11.dtd">
<svg version="1.1" id="Layer_1" xmlns="http://www.w3.org/2000/svg" xmlns:xlink="http://www.w3.org/1999/xlink" x="0px" y="0px"
	 width="719.96px" height="232.49px" viewBox="0 0 719.96 232.49" style="enable-background:new 0 0 719.96 232.49;"
	 xml:space="preserve">
<style type="text/css">
<![CDATA[
	.st0{fill:#E2CFC4;}
	.st1{fill:#947960;}
	.st2{fill:#312B2B;}
	.st3{fill:#6CC9C8;}
	.st4{fill:#008D99;}
	.st5{fill:#D4C26A;}
	.st6{fill:#D4D4D4;}
	.st7{fill:#08595B;}
]]>
</style>
<rect x="0.39" y="-1.57" class="st3" width="720" height="236"/>
<rect x="0.39" y="141.52" class="st2" width="720" height="92.91"/>
<rect x="-0.61" y="131.43" class="st6" width="722" height="10"/>
<polygon class="st7" points="492.92,160.94 469.12,160.94 469.12,161.02 231.11,161.02 231.11,160.94 208.45,160.94 218.88,132.52 
	208.08,105.52 492.54,105.52 482.11,133.94 "/>
<g>
	<path class="st6" d="M245.25,122.08v25.68h-8.04v-25.68h-8.08v-7.2h24.2v7.2H245.25z"/>
	<path class="st6" d="M269.17,147.75v-15.09c0-0.68-0.11-1.23-0.33-1.64c-0.22-0.42-0.47-0.74-0.77-0.97
		c-0.3-0.23-0.61-0.39-0.95-0.49s-0.64-0.14-0.88-0.14c-0.25,0-0.54,0.05-0.88,0.14s-0.66,0.25-0.95,0.49
		c-0.3,0.23-0.55,0.56-0.77,0.97c-0.22,0.42-0.33,0.96-0.33,1.64v15.09h-7.53v-32.88h7.53v10.05c0.8-0.8,1.67-1.38,2.61-1.74
		c0.94-0.37,1.89-0.55,2.84-0.55c1.32,0,2.49,0.23,3.49,0.69c1,0.46,1.83,1.1,2.49,1.92c0.66,0.82,1.15,1.77,1.48,2.86
		c0.32,1.09,0.48,2.27,0.48,3.53v16.12H269.17z"/>
	<path class="st6" d="M286.68,137.78c0,1.03,0.38,1.94,1.13,2.73c0.75,0.79,1.84,1.19,3.26,1.19c1.32,0,2.34-0.18,3.05-0.53
		c0.71-0.35,1.4-0.87,2.08-1.55l4.53,4.51c-0.65,0.64-1.29,1.2-1.94,1.67c-0.65,0.47-1.35,0.88-2.1,1.21
		c-0.75,0.34-1.59,0.59-2.52,0.76c-0.92,0.17-1.96,0.25-3.09,0.25c-1.39,0-2.78-0.16-4.17-0.48s-2.65-0.94-3.77-1.85
		c-1.12-0.91-2.04-2.19-2.75-3.86c-0.72-1.66-1.08-3.83-1.08-6.51c0-2.03,0.28-3.83,0.83-5.4s1.33-2.9,2.31-3.99
		c0.99-1.09,2.16-1.92,3.52-2.47c1.36-0.55,2.85-0.83,4.49-0.83c1.79,0,3.39,0.31,4.79,0.92c1.4,0.62,2.58,1.46,3.52,2.52
		s1.66,2.31,2.15,3.74s0.74,2.96,0.74,4.6v3.37H286.68z M294.11,132.79c0-0.31-0.03-0.63-0.09-0.96c-0.06-0.33-0.17-0.66-0.33-1.01
		c-0.25-0.53-0.63-0.99-1.16-1.38c-0.53-0.39-1.24-0.58-2.14-0.58c-0.9,0-1.61,0.19-2.14,0.58c-0.53,0.39-0.91,0.85-1.16,1.38
		c-0.16,0.34-0.26,0.68-0.33,1.01c-0.06,0.33-0.09,0.65-0.09,0.96H294.11z"/>
	<path class="st6" d="M337.75,138.06c0,1.57-0.26,2.96-0.78,4.16s-1.24,2.22-2.14,3.05c-0.91,0.83-1.98,1.45-3.23,1.87
		c-1.24,0.42-2.6,0.62-4.08,0.62h-14.29v-32.88h13.6c1.69,0,3.19,0.23,4.49,0.69s2.4,1.11,3.3,1.94s1.56,1.83,2.01,3
		c0.45,1.17,0.67,2.46,0.67,3.88c0,0.92-0.14,1.75-0.42,2.49c-0.28,0.74-0.61,1.38-0.99,1.92c-0.39,0.54-0.79,0.98-1.2,1.32
		s-0.75,0.6-0.99,0.79c0.34,0.21,0.74,0.49,1.2,0.83c0.46,0.34,0.91,0.79,1.34,1.34c0.43,0.55,0.79,1.24,1.09,2.06
		C337.61,135.94,337.75,136.92,337.75,138.06z M329.26,124.8c0-0.63-0.21-1.23-0.63-1.79c-0.42-0.56-1.19-0.84-2.3-0.84h-5.06v5.26
		h5.06c1.11,0,1.88-0.28,2.3-0.84C329.05,126.03,329.26,125.44,329.26,124.8z M329.72,137.57c0-0.7-0.22-1.35-0.65-1.95
		c-0.43-0.6-1.21-0.89-2.32-0.89h-5.48v5.73h5.48c1.11,0,1.89-0.31,2.32-0.92C329.5,138.93,329.72,138.27,329.72,137.57z"/>
	<path class="st6" d="M361.58,135.33c0,1.23-0.05,2.31-0.14,3.23s-0.24,1.75-0.44,2.49c-0.2,0.74-0.48,1.42-0.83,2.03
		c-0.35,0.62-0.79,1.2-1.31,1.76c-0.74,0.8-1.75,1.53-3.04,2.19c-1.29,0.66-2.93,0.99-4.93,0.99c-2,0-3.64-0.33-4.93-0.99
		c-1.29-0.66-2.3-1.39-3.04-2.19c-0.52-0.55-0.96-1.14-1.31-1.76c-0.35-0.62-0.63-1.29-0.83-2.03c-0.2-0.74-0.35-1.57-0.44-2.49
		c-0.09-0.92-0.14-2-0.14-3.23c0-1.2,0.05-2.27,0.14-3.21c0.09-0.94,0.24-1.78,0.44-2.52c0.2-0.74,0.48-1.42,0.83-2.03
		c0.35-0.62,0.79-1.2,1.31-1.75c0.37-0.4,0.81-0.79,1.31-1.15c0.51-0.37,1.08-0.71,1.73-1.02s1.37-0.55,2.19-0.74
		c0.81-0.18,1.73-0.28,2.74-0.28c1.01,0,1.93,0.09,2.74,0.28c0.81,0.19,1.54,0.43,2.19,0.74s1.22,0.65,1.73,1.02
		c0.51,0.37,0.94,0.75,1.31,1.15c0.52,0.55,0.96,1.14,1.31,1.75c0.35,0.62,0.63,1.29,0.83,2.03c0.2,0.74,0.34,1.58,0.44,2.52
		C361.54,133.06,361.58,134.13,361.58,135.33z M354.06,135.33c0-1.24-0.06-2.3-0.19-3.17c-0.12-0.87-0.43-1.55-0.93-2.05
		c-0.47-0.47-1.15-0.7-2.05-0.7c-0.9,0-1.58,0.23-2.05,0.7c-0.5,0.5-0.81,1.18-0.93,2.05c-0.12,0.87-0.19,1.92-0.19,3.17
		c0,1.24,0.06,2.3,0.19,3.16c0.12,0.87,0.43,1.55,0.93,2.05c0.46,0.47,1.15,0.7,2.05,0.7c0.9,0,1.58-0.23,2.05-0.7
		c0.5-0.5,0.81-1.18,0.93-2.05C353.99,137.63,354.06,136.57,354.06,135.33z"/>
	<path class="st6" d="M385.14,135.33c0,1.23-0.05,2.31-0.14,3.23s-0.24,1.75-0.44,2.49c-0.2,0.74-0.48,1.42-0.83,2.03
		c-0.35,0.62-0.79,1.2-1.31,1.76c-0.74,0.8-1.75,1.53-3.04,2.19c-1.29,0.66-2.93,0.99-4.93,0.99c-2,0-3.64-0.33-4.93-0.99
		c-1.29-0.66-2.3-1.39-3.04-2.19c-0.52-0.55-0.96-1.14-1.31-1.76c-0.35-0.62-0.63-1.29-0.83-2.03c-0.2-0.74-0.35-1.57-0.44-2.49
		c-0.09-0.92-0.14-2-0.14-3.23c0-1.2,0.05-2.27,0.14-3.21c0.09-0.94,0.24-1.78,0.44-2.52c0.2-0.74,0.48-1.42,0.83-2.03
		c0.35-0.62,0.79-1.2,1.31-1.75c0.37-0.4,0.81-0.79,1.31-1.15c0.51-0.37,1.08-0.71,1.73-1.02s1.37-0.55,2.19-0.74
		c0.81-0.18,1.73-0.28,2.74-0.28c1.01,0,1.93,0.09,2.74,0.28c0.81,0.19,1.54,0.43,2.19,0.74s1.22,0.65,1.73,1.02
		c0.51,0.37,0.94,0.75,1.31,1.15c0.52,0.55,0.96,1.14,1.31,1.75c0.35,0.62,0.63,1.29,0.83,2.03c0.2,0.74,0.34,1.58,0.44,2.52
		C385.09,133.06,385.14,134.13,385.14,135.33z M377.61,135.33c0-1.24-0.06-2.3-0.19-3.17c-0.12-0.87-0.43-1.55-0.93-2.05
		c-0.47-0.47-1.15-0.7-2.05-0.7c-0.9,0-1.58,0.23-2.05,0.7c-0.5,0.5-0.81,1.18-0.93,2.05c-0.12,0.87-0.19,1.92-0.19,3.17
		c0,1.24,0.06,2.3,0.19,3.16c0.12,0.87,0.43,1.55,0.93,2.05c0.46,0.47,1.15,0.7,2.05,0.7c0.9,0,1.58-0.23,2.05-0.7
		c0.5-0.5,0.81-1.18,0.93-2.05C377.55,137.63,377.61,136.57,377.61,135.33z"/>
	<path class="st6" d="M402.36,147.75l-5.17-9.1l-1.48,1.62v7.48h-7.53v-32.88h7.53v16.72l6.7-8.68h9.1l-9.14,10.3l9.38,14.55H402.36
		z"/>
	<path class="st6" d="M412.8,120.37v-5.77h7.53v5.77H412.8z M412.8,147.75v-23.88h7.53v23.88H412.8z"/>
	<path class="st6" d="M430.53,137.78c0,1.03,0.38,1.94,1.13,2.73c0.75,0.79,1.84,1.19,3.26,1.19c1.32,0,2.34-0.18,3.05-0.53
		c0.71-0.35,1.4-0.87,2.08-1.55l4.53,4.51c-0.65,0.64-1.29,1.2-1.94,1.67c-0.65,0.47-1.35,0.88-2.1,1.21
		c-0.75,0.34-1.59,0.59-2.52,0.76c-0.92,0.17-1.96,0.25-3.09,0.25c-1.39,0-2.78-0.16-4.17-0.48s-2.65-0.94-3.77-1.85
		c-1.12-0.91-2.04-2.19-2.75-3.86c-0.72-1.66-1.08-3.83-1.08-6.51c0-2.03,0.28-3.83,0.83-5.4c0.56-1.57,1.33-2.9,2.31-3.99
		c0.99-1.09,2.16-1.92,3.52-2.47c1.36-0.55,2.85-0.83,4.49-0.83c1.79,0,3.39,0.31,4.79,0.92c1.4,0.62,2.58,1.46,3.52,2.52
		s1.66,2.31,2.15,3.74c0.49,1.43,0.74,2.96,0.74,4.6v3.37H430.53z M437.97,132.79c0-0.31-0.03-0.63-0.09-0.96
		c-0.06-0.33-0.17-0.66-0.33-1.01c-0.25-0.53-0.63-0.99-1.16-1.38c-0.53-0.39-1.24-0.58-2.14-0.58c-0.9,0-1.61,0.19-2.14,0.58
		c-0.53,0.39-0.91,0.85-1.16,1.38c-0.16,0.34-0.26,0.68-0.33,1.01c-0.06,0.33-0.09,0.65-0.09,0.96H437.97z"/>
	<path class="st6" d="M467.39,139.63c0,1.48-0.29,2.74-0.88,3.79c-0.59,1.05-1.37,1.92-2.36,2.61c-0.99,0.69-2.12,1.2-3.42,1.52
		s-2.66,0.48-4.11,0.48c-0.92,0-1.85-0.03-2.77-0.09c-0.92-0.06-1.84-0.21-2.75-0.44s-1.8-0.58-2.68-1.06
		c-0.88-0.48-1.75-1.15-2.61-2.01l4.89-4.9c0.52,0.52,1.07,0.92,1.64,1.2c0.57,0.28,1.13,0.49,1.69,0.62
		c0.55,0.14,1.06,0.22,1.52,0.23s0.86,0.02,1.2,0.02c0.28,0,0.6-0.02,0.97-0.07c0.37-0.05,0.72-0.13,1.06-0.25s0.62-0.28,0.85-0.48
		c0.23-0.2,0.35-0.47,0.35-0.81c0-0.34-0.12-0.67-0.35-0.99c-0.23-0.32-0.72-0.52-1.45-0.58l-3.83-0.37
		c-1.08-0.09-2.05-0.29-2.93-0.6c-0.88-0.31-1.63-0.75-2.26-1.34s-1.12-1.31-1.48-2.17c-0.35-0.86-0.53-1.89-0.53-3.09
		c0-1.38,0.28-2.59,0.85-3.6c0.57-1.02,1.32-1.87,2.24-2.56c0.92-0.69,1.98-1.21,3.16-1.55c1.18-0.34,2.39-0.51,3.62-0.51
		c2.03,0,3.86,0.2,5.5,0.6c1.63,0.4,3.06,1.22,4.29,2.45l-4.67,4.66c-0.62-0.62-1.4-1.02-2.36-1.2c-0.95-0.18-1.92-0.28-2.91-0.28
		c-0.92,0-1.56,0.17-1.92,0.51c-0.35,0.34-0.53,0.65-0.53,0.92c0,0.06,0.01,0.16,0.02,0.3s0.07,0.28,0.16,0.42s0.25,0.28,0.46,0.42
		c0.21,0.14,0.54,0.22,0.97,0.25l3.83,0.37c1.29,0.12,2.42,0.4,3.37,0.83c0.95,0.43,1.73,0.99,2.33,1.66
		c0.6,0.68,1.05,1.45,1.34,2.31C467.24,137.72,467.39,138.64,467.39,139.63z"/>
</g>
<g>
	<path class="st6" d="M184.94,200.85h-3.29l-2.65-8.07l-2.64,8.07h-3.27l-4.51-16.38h4.21l2.14,8.65l2.65-8.65h2.85l2.65,8.65
		l2.14-8.65h4.21L184.94,200.85z"/>
	<path class="st6" d="M192.14,195.88c0,0.51,0.19,0.97,0.56,1.36s0.92,0.59,1.62,0.59c0.66,0,1.17-0.09,1.52-0.26
		c0.35-0.18,0.7-0.43,1.04-0.77l2.25,2.25c-0.32,0.32-0.64,0.6-0.97,0.83c-0.32,0.24-0.67,0.44-1.05,0.6
		c-0.38,0.17-0.79,0.29-1.25,0.38c-0.46,0.08-0.97,0.12-1.54,0.12c-0.69,0-1.38-0.08-2.08-0.24c-0.7-0.16-1.32-0.47-1.88-0.92
		s-1.01-1.09-1.37-1.92c-0.36-0.83-0.54-1.91-0.54-3.24c0-1.01,0.14-1.91,0.42-2.69c0.28-0.78,0.66-1.45,1.15-1.99
		c0.49-0.54,1.08-0.96,1.75-1.23c0.68-0.28,1.42-0.41,2.24-0.41c0.89,0,1.69,0.15,2.39,0.46c0.7,0.31,1.28,0.72,1.75,1.25
		c0.47,0.53,0.83,1.15,1.07,1.86c0.25,0.71,0.37,1.48,0.37,2.29v1.68H192.14z M195.84,193.4c0-0.16-0.02-0.31-0.05-0.48
		c-0.03-0.16-0.09-0.33-0.16-0.5c-0.12-0.26-0.32-0.49-0.58-0.69c-0.26-0.19-0.62-0.29-1.06-0.29s-0.8,0.1-1.06,0.29
		c-0.26,0.19-0.46,0.42-0.58,0.69c-0.08,0.17-0.13,0.34-0.16,0.5c-0.03,0.16-0.05,0.32-0.05,0.48H195.84z"/>
	<path class="st6" d="M204.65,200.85c-0.69,0-1.27-0.11-1.75-0.33c-0.48-0.22-0.87-0.51-1.18-0.86c-0.3-0.35-0.53-0.74-0.67-1.17
		c-0.15-0.43-0.22-0.86-0.22-1.29v-12.72h3.75v12.46c0,0.51,0.25,0.76,0.76,0.76h1.31v3.15H204.65z"/>
	<path class="st6" d="M216.36,199.41c-0.51,0.5-1.09,0.89-1.76,1.17c-0.67,0.27-1.44,0.41-2.31,0.41c-0.54,0-1.13-0.08-1.77-0.23
		c-0.64-0.15-1.25-0.46-1.81-0.91c-0.56-0.45-1.03-1.09-1.41-1.92c-0.37-0.83-0.56-1.92-0.56-3.27c0-1.35,0.19-2.44,0.56-3.27
		c0.37-0.83,0.84-1.47,1.41-1.92s1.17-0.76,1.81-0.91c0.64-0.15,1.23-0.23,1.77-0.23c0.87,0,1.64,0.14,2.31,0.41
		c0.67,0.28,1.25,0.67,1.76,1.17l-2.55,2.55c-0.25-0.25-0.48-0.44-0.71-0.57c-0.23-0.13-0.5-0.19-0.8-0.19
		c-0.26,0-0.48,0.04-0.66,0.12c-0.18,0.08-0.35,0.2-0.52,0.37c-0.41,0.43-0.62,1.25-0.62,2.46c0,1.21,0.21,2.02,0.62,2.46
		c0.17,0.17,0.34,0.29,0.52,0.37c0.18,0.08,0.39,0.12,0.66,0.12c0.31,0,0.58-0.06,0.8-0.18c0.23-0.12,0.47-0.31,0.71-0.55
		L216.36,199.41z"/>
	<path class="st6" d="M227.1,194.67c0,0.61-0.02,1.15-0.07,1.61s-0.12,0.87-0.22,1.24c-0.1,0.37-0.24,0.71-0.41,1.01
		c-0.18,0.31-0.39,0.6-0.65,0.87c-0.37,0.4-0.87,0.76-1.51,1.09s-1.46,0.49-2.46,0.49c-1,0-1.81-0.16-2.46-0.49
		s-1.15-0.69-1.51-1.09c-0.26-0.28-0.48-0.57-0.65-0.87c-0.18-0.31-0.31-0.64-0.41-1.01s-0.17-0.78-0.22-1.24s-0.07-1-0.07-1.61
		c0-0.6,0.02-1.13,0.07-1.6s0.12-0.89,0.22-1.25s0.24-0.71,0.41-1.01c0.18-0.31,0.39-0.6,0.65-0.87c0.18-0.2,0.4-0.39,0.65-0.58
		c0.25-0.18,0.54-0.35,0.86-0.51s0.69-0.28,1.09-0.37s0.86-0.14,1.37-0.14s0.96,0.05,1.37,0.14s0.77,0.21,1.09,0.37
		s0.61,0.32,0.86,0.51c0.25,0.18,0.47,0.38,0.65,0.58c0.26,0.28,0.48,0.57,0.65,0.87c0.18,0.31,0.31,0.64,0.41,1.01
		c0.1,0.37,0.17,0.79,0.22,1.25S227.1,194.07,227.1,194.67z M223.35,194.67c0-0.62-0.03-1.14-0.09-1.58
		c-0.06-0.43-0.22-0.77-0.46-1.02c-0.23-0.23-0.57-0.35-1.02-0.35s-0.79,0.12-1.02,0.35c-0.25,0.25-0.4,0.59-0.46,1.02
		c-0.06,0.43-0.09,0.96-0.09,1.58c0,0.62,0.03,1.14,0.09,1.58c0.06,0.43,0.22,0.77,0.46,1.02c0.23,0.23,0.57,0.35,1.02,0.35
		s0.79-0.12,1.02-0.35c0.25-0.25,0.4-0.59,0.46-1.02C223.32,195.81,223.35,195.28,223.35,194.67z"/>
	<path class="st6" d="M242.23,200.85v-7.42c0-0.35-0.05-0.64-0.16-0.86c-0.11-0.22-0.24-0.4-0.41-0.52
		c-0.16-0.12-0.33-0.21-0.51-0.25c-0.18-0.05-0.33-0.07-0.45-0.07c-0.12,0-0.27,0.02-0.45,0.07s-0.35,0.13-0.51,0.25
		s-0.3,0.3-0.41,0.52c-0.11,0.22-0.16,0.51-0.16,0.86v7.42h-3.75v-7.42c0-0.35-0.05-0.64-0.16-0.86c-0.11-0.22-0.24-0.4-0.41-0.52
		s-0.33-0.21-0.51-0.25s-0.33-0.07-0.45-0.07c-0.12,0-0.27,0.02-0.45,0.07c-0.18,0.05-0.35,0.13-0.51,0.25
		c-0.16,0.12-0.3,0.3-0.41,0.52s-0.16,0.51-0.16,0.86v7.42h-3.75v-12.37h3.66l0.02,1c0.38-0.38,0.83-0.67,1.35-0.86
		c0.52-0.19,1.03-0.29,1.52-0.29c0.61,0,1.17,0.1,1.66,0.31s0.95,0.54,1.34,1c0.54-0.47,1.07-0.81,1.61-1.01
		c0.54-0.2,1.16-0.3,1.88-0.3c0.58,0,1.14,0.09,1.66,0.28c0.53,0.18,0.96,0.45,1.3,0.78c0.54,0.54,0.9,1.1,1.08,1.68
		c0.18,0.58,0.28,1.2,0.28,1.86v7.91H242.23z"/>
	<path class="st6" d="M250.95,195.88c0,0.51,0.19,0.97,0.56,1.36s0.92,0.59,1.62,0.59c0.66,0,1.17-0.09,1.52-0.26
		c0.35-0.18,0.7-0.43,1.04-0.77l2.25,2.25c-0.32,0.32-0.64,0.6-0.97,0.83c-0.32,0.24-0.67,0.44-1.05,0.6
		c-0.38,0.17-0.79,0.29-1.25,0.38c-0.46,0.08-0.97,0.12-1.54,0.12c-0.69,0-1.38-0.08-2.08-0.24c-0.7-0.16-1.32-0.47-1.88-0.92
		s-1.01-1.09-1.37-1.92c-0.36-0.83-0.54-1.91-0.54-3.24c0-1.01,0.14-1.91,0.42-2.69c0.28-0.78,0.66-1.45,1.15-1.99
		c0.49-0.54,1.08-0.96,1.75-1.23c0.68-0.28,1.42-0.41,2.24-0.41c0.89,0,1.69,0.15,2.39,0.46c0.7,0.31,1.28,0.72,1.75,1.25
		c0.47,0.53,0.83,1.15,1.07,1.86c0.25,0.71,0.37,1.48,0.37,2.29v1.68H250.95z M254.65,193.4c0-0.16-0.02-0.31-0.05-0.48
		c-0.03-0.16-0.09-0.33-0.16-0.5c-0.12-0.26-0.32-0.49-0.58-0.69c-0.26-0.19-0.62-0.29-1.06-0.29s-0.8,0.1-1.06,0.29
		c-0.26,0.19-0.46,0.42-0.58,0.69c-0.08,0.17-0.13,0.34-0.16,0.5c-0.03,0.16-0.05,0.32-0.05,0.48H254.65z"/>
	<path class="st6" d="M268.04,200.85c-0.69,0-1.27-0.11-1.75-0.33s-0.87-0.51-1.18-0.86c-0.3-0.35-0.53-0.74-0.67-1.17
		c-0.14-0.43-0.22-0.86-0.22-1.28v-5.32h-1.13v-2.92h1.13v-3.54h3.75v3.54h1.96v2.92h-1.96v5.06c0,0.51,0.25,0.76,0.76,0.76h1.2
		v3.15H268.04z"/>
	<path class="st6" d="M281.52,194.67c0,0.61-0.02,1.15-0.07,1.61s-0.12,0.87-0.22,1.24c-0.1,0.37-0.24,0.71-0.41,1.01
		c-0.18,0.31-0.39,0.6-0.65,0.87c-0.37,0.4-0.87,0.76-1.51,1.09s-1.46,0.49-2.46,0.49c-1,0-1.81-0.16-2.46-0.49
		s-1.15-0.69-1.51-1.09c-0.26-0.28-0.48-0.57-0.65-0.87c-0.18-0.31-0.31-0.64-0.41-1.01s-0.17-0.78-0.22-1.24s-0.07-1-0.07-1.61
		c0-0.6,0.02-1.13,0.07-1.6s0.12-0.89,0.22-1.25s0.24-0.71,0.41-1.01c0.18-0.31,0.39-0.6,0.65-0.87c0.18-0.2,0.4-0.39,0.65-0.58
		c0.25-0.18,0.54-0.35,0.86-0.51s0.69-0.28,1.09-0.37s0.86-0.14,1.37-0.14s0.96,0.05,1.37,0.14s0.77,0.21,1.09,0.37
		s0.61,0.32,0.86,0.51c0.25,0.18,0.47,0.38,0.65,0.58c0.26,0.28,0.48,0.57,0.65,0.87c0.18,0.31,0.31,0.64,0.41,1.01
		c0.1,0.37,0.17,0.79,0.22,1.25S281.52,194.07,281.52,194.67z M277.77,194.67c0-0.62-0.03-1.14-0.09-1.58
		c-0.06-0.43-0.22-0.77-0.46-1.02c-0.23-0.23-0.57-0.35-1.02-0.35s-0.79,0.12-1.02,0.35c-0.25,0.25-0.4,0.59-0.46,1.02
		c-0.06,0.43-0.09,0.96-0.09,1.58c0,0.62,0.03,1.14,0.09,1.58c0.06,0.43,0.22,0.77,0.46,1.02c0.23,0.23,0.57,0.35,1.02,0.35
		s0.79-0.12,1.02-0.35c0.25-0.25,0.4-0.59,0.46-1.02C277.74,195.81,277.77,195.28,277.77,194.67z"/>
	<path class="st6" d="M297.43,194.67c0,0.61-0.02,1.15-0.07,1.61s-0.12,0.87-0.22,1.24c-0.1,0.37-0.24,0.71-0.41,1.01
		c-0.18,0.31-0.39,0.6-0.65,0.87c-0.37,0.4-0.87,0.76-1.51,1.09s-1.46,0.49-2.46,0.49c-1,0-1.81-0.16-2.46-0.49
		s-1.15-0.69-1.51-1.09c-0.26-0.28-0.48-0.57-0.65-0.87c-0.18-0.31-0.31-0.64-0.41-1.01s-0.17-0.78-0.22-1.24s-0.07-1-0.07-1.61
		c0-0.6,0.02-1.13,0.07-1.6s0.12-0.89,0.22-1.25s0.24-0.71,0.41-1.01c0.18-0.31,0.39-0.6,0.65-0.87c0.18-0.2,0.4-0.39,0.65-0.58
		c0.25-0.18,0.54-0.35,0.86-0.51s0.69-0.28,1.09-0.37s0.86-0.14,1.37-0.14s0.96,0.05,1.37,0.14s0.77,0.21,1.09,0.37
		s0.61,0.32,0.86,0.51c0.25,0.18,0.47,0.38,0.65,0.58c0.26,0.28,0.48,0.57,0.65,0.87c0.18,0.31,0.31,0.64,0.41,1.01
		c0.1,0.37,0.17,0.79,0.22,1.25S297.43,194.07,297.43,194.67z M293.68,194.67c0-0.62-0.03-1.14-0.09-1.58
		c-0.06-0.43-0.22-0.77-0.46-1.02c-0.23-0.23-0.57-0.35-1.02-0.35s-0.79,0.12-1.02,0.35c-0.25,0.25-0.4,0.59-0.46,1.02
		c-0.06,0.43-0.09,0.96-0.09,1.58c0,0.62,0.03,1.14,0.09,1.58c0.06,0.43,0.22,0.77,0.46,1.02c0.23,0.23,0.57,0.35,1.02,0.35
		s0.79-0.12,1.02-0.35c0.25-0.25,0.4-0.59,0.46-1.02C293.65,195.81,293.68,195.28,293.68,194.67z"/>
	<path class="st6" d="M305.72,200.85v-1.01c-0.38,0.38-0.83,0.67-1.35,0.86s-1.03,0.29-1.51,0.29c-0.58,0-1.11-0.09-1.57-0.28
		c-0.47-0.18-0.87-0.45-1.21-0.78c-0.54-0.54-0.88-1.1-1.02-1.68c-0.14-0.58-0.22-1.2-0.22-1.86v-7.91h3.75v7.42
		c0,0.35,0.05,0.64,0.16,0.86c0.11,0.22,0.24,0.4,0.41,0.52s0.33,0.21,0.51,0.25c0.18,0.05,0.33,0.07,0.45,0.07
		c0.12,0,0.27-0.02,0.45-0.07c0.18-0.05,0.35-0.13,0.51-0.25s0.3-0.3,0.41-0.52c0.11-0.22,0.16-0.51,0.16-0.86v-7.42h3.75v12.37
		H305.72z"/>
	<path class="st6" d="M317.97,192.39c-0.18-0.18-0.38-0.34-0.58-0.46s-0.46-0.18-0.78-0.18c-0.12,0-0.27,0.02-0.45,0.07
		c-0.18,0.05-0.34,0.13-0.51,0.25c-0.16,0.12-0.29,0.3-0.4,0.52c-0.11,0.22-0.16,0.51-0.16,0.86v7.41h-3.75v-12.37H315l0,1.01
		c0.28-0.28,0.67-0.54,1.18-0.78s1.09-0.37,1.74-0.37c0.61,0,1.14,0.08,1.59,0.25s0.88,0.47,1.31,0.9L317.97,192.39z"/>
	<path class="st6" d="M336.19,194.67c0,0.46,0,0.93-0.01,1.41s-0.05,0.95-0.12,1.41c-0.07,0.46-0.18,0.89-0.33,1.3
		s-0.38,0.76-0.69,1.07c-0.35,0.35-0.79,0.63-1.32,0.83s-1.09,0.3-1.69,0.3c-0.64,0-1.18-0.09-1.62-0.29
		c-0.44-0.19-0.85-0.48-1.23-0.86v1h-3.63v-16.38h3.75v4.89c0.35-0.35,0.75-0.61,1.18-0.78c0.44-0.17,0.96-0.25,1.58-0.25
		c0.6,0,1.16,0.1,1.68,0.3c0.52,0.2,0.96,0.48,1.31,0.83c0.31,0.31,0.54,0.66,0.69,1.07s0.26,0.84,0.33,1.3
		c0.07,0.46,0.11,0.93,0.12,1.41S336.19,194.2,336.19,194.67z M332.44,194.67c0-0.45-0.02-0.85-0.05-1.22
		c-0.03-0.36-0.1-0.67-0.21-0.93c-0.11-0.25-0.27-0.45-0.48-0.59c-0.21-0.14-0.49-0.21-0.84-0.21c-0.36,0-0.64,0.07-0.85,0.21
		c-0.21,0.14-0.37,0.34-0.47,0.59s-0.18,0.56-0.21,0.93c-0.03,0.36-0.05,0.77-0.05,1.22s0.02,0.85,0.05,1.22
		c0.03,0.36,0.1,0.67,0.21,0.93c0.11,0.26,0.27,0.45,0.47,0.59c0.21,0.14,0.49,0.21,0.85,0.21c0.35,0,0.64-0.07,0.84-0.21
		c0.21-0.14,0.37-0.34,0.48-0.59c0.11-0.25,0.18-0.56,0.21-0.93C332.42,195.52,332.44,195.11,332.44,194.67z"/>
	<path class="st6" d="M347.92,194.67c0,0.61-0.02,1.15-0.07,1.61s-0.12,0.87-0.22,1.24c-0.1,0.37-0.24,0.71-0.41,1.01
		c-0.18,0.31-0.39,0.6-0.65,0.87c-0.37,0.4-0.87,0.76-1.51,1.09s-1.46,0.49-2.46,0.49c-1,0-1.81-0.16-2.46-0.49
		s-1.15-0.69-1.51-1.09c-0.26-0.28-0.48-0.57-0.65-0.87c-0.18-0.31-0.31-0.64-0.41-1.01s-0.17-0.78-0.22-1.24s-0.07-1-0.07-1.61
		c0-0.6,0.02-1.13,0.07-1.6s0.12-0.89,0.22-1.25s0.24-0.71,0.41-1.01c0.18-0.31,0.39-0.6,0.65-0.87c0.18-0.2,0.4-0.39,0.65-0.58
		c0.25-0.18,0.54-0.35,0.86-0.51s0.69-0.28,1.09-0.37s0.86-0.14,1.37-0.14s0.96,0.05,1.37,0.14s0.77,0.21,1.09,0.37
		s0.61,0.32,0.86,0.51c0.25,0.18,0.47,0.38,0.65,0.58c0.26,0.28,0.48,0.57,0.65,0.87c0.18,0.31,0.31,0.64,0.41,1.01
		c0.1,0.37,0.17,0.79,0.22,1.25S347.92,194.07,347.92,194.67z M344.17,194.67c0-0.62-0.03-1.14-0.09-1.58
		c-0.06-0.43-0.22-0.77-0.46-1.02c-0.23-0.23-0.57-0.35-1.02-0.35s-0.79,0.12-1.02,0.35c-0.25,0.25-0.4,0.59-0.46,1.02
		c-0.06,0.43-0.09,0.96-0.09,1.58c0,0.62,0.03,1.14,0.09,1.58c0.06,0.43,0.22,0.77,0.46,1.02c0.23,0.23,0.57,0.35,1.02,0.35
		s0.79-0.12,1.02-0.35c0.25-0.25,0.4-0.59,0.46-1.02C344.14,195.81,344.17,195.28,344.17,194.67z"/>
	<path class="st6" d="M359.65,194.67c0,0.61-0.02,1.15-0.07,1.61s-0.12,0.87-0.22,1.24c-0.1,0.37-0.24,0.71-0.41,1.01
		c-0.18,0.31-0.39,0.6-0.65,0.87c-0.37,0.4-0.87,0.76-1.51,1.09s-1.46,0.49-2.46,0.49c-1,0-1.81-0.16-2.46-0.49
		s-1.15-0.69-1.51-1.09c-0.26-0.28-0.48-0.57-0.65-0.87c-0.18-0.31-0.31-0.64-0.41-1.01s-0.17-0.78-0.22-1.24s-0.07-1-0.07-1.61
		c0-0.6,0.02-1.13,0.07-1.6s0.12-0.89,0.22-1.25s0.24-0.71,0.41-1.01c0.18-0.31,0.39-0.6,0.65-0.87c0.18-0.2,0.4-0.39,0.65-0.58
		c0.25-0.18,0.54-0.35,0.86-0.51s0.69-0.28,1.09-0.37s0.86-0.14,1.37-0.14s0.96,0.05,1.37,0.14s0.77,0.21,1.09,0.37
		s0.61,0.32,0.86,0.51c0.25,0.18,0.47,0.38,0.65,0.58c0.26,0.28,0.48,0.57,0.65,0.87c0.18,0.31,0.31,0.64,0.41,1.01
		c0.1,0.37,0.17,0.79,0.22,1.25S359.65,194.07,359.65,194.67z M355.9,194.67c0-0.62-0.03-1.14-0.09-1.58
		c-0.06-0.43-0.22-0.77-0.46-1.02c-0.23-0.23-0.57-0.35-1.02-0.35s-0.79,0.12-1.02,0.35c-0.25,0.25-0.4,0.59-0.46,1.02
		c-0.06,0.43-0.09,0.96-0.09,1.58c0,0.62,0.03,1.14,0.09,1.58c0.06,0.43,0.22,0.77,0.46,1.02c0.23,0.23,0.57,0.35,1.02,0.35
		s0.79-0.12,1.02-0.35c0.25-0.25,0.4-0.59,0.46-1.02C355.87,195.81,355.9,195.28,355.9,194.67z"/>
	<path class="st6" d="M368.23,200.85l-2.58-4.53l-0.74,0.81v3.73h-3.75v-16.38h3.75v8.33l3.33-4.32h4.53l-4.55,5.13l4.67,7.25
		H368.23z"/>
	<path class="st6" d="M382.32,199.41c-0.51,0.5-1.09,0.89-1.76,1.17c-0.67,0.27-1.44,0.41-2.31,0.41c-0.54,0-1.13-0.08-1.77-0.23
		c-0.64-0.15-1.25-0.46-1.81-0.91c-0.56-0.45-1.03-1.09-1.41-1.92c-0.37-0.83-0.56-1.92-0.56-3.27c0-1.35,0.19-2.44,0.56-3.27
		c0.37-0.83,0.84-1.47,1.41-1.92s1.17-0.76,1.81-0.91c0.64-0.15,1.23-0.23,1.77-0.23c0.87,0,1.64,0.14,2.31,0.41
		c0.67,0.28,1.25,0.67,1.76,1.17l-2.55,2.55c-0.25-0.25-0.48-0.44-0.71-0.57c-0.23-0.13-0.5-0.19-0.8-0.19
		c-0.26,0-0.48,0.04-0.66,0.12c-0.18,0.08-0.35,0.2-0.52,0.37c-0.41,0.43-0.62,1.25-0.62,2.46c0,1.21,0.21,2.02,0.62,2.46
		c0.17,0.17,0.34,0.29,0.52,0.37c0.18,0.08,0.39,0.12,0.66,0.12c0.31,0,0.58-0.06,0.8-0.18c0.23-0.12,0.47-0.31,0.71-0.55
		L382.32,199.41z"/>
	<path class="st6" d="M386.97,200.85c-0.69,0-1.27-0.11-1.75-0.33c-0.48-0.22-0.87-0.51-1.18-0.86c-0.3-0.35-0.53-0.74-0.67-1.17
		c-0.15-0.43-0.22-0.86-0.22-1.29v-12.72h3.75v12.46c0,0.51,0.25,0.76,0.76,0.76h1.31v3.15H386.97z"/>
	<path class="st6" d="M396.96,200.85v-1.01c-0.38,0.38-0.83,0.67-1.35,0.86s-1.03,0.29-1.51,0.29c-0.58,0-1.11-0.09-1.57-0.28
		c-0.47-0.18-0.87-0.45-1.21-0.78c-0.54-0.54-0.88-1.1-1.02-1.68c-0.14-0.58-0.22-1.2-0.22-1.86v-7.91h3.75v7.42
		c0,0.35,0.05,0.64,0.16,0.86c0.11,0.22,0.24,0.4,0.41,0.52s0.33,0.21,0.51,0.25c0.18,0.05,0.33,0.07,0.45,0.07
		c0.12,0,0.27-0.02,0.45-0.07c0.18-0.05,0.35-0.13,0.51-0.25s0.3-0.3,0.41-0.52c0.11-0.22,0.16-0.51,0.16-0.86v-7.42h3.75v12.37
		H396.96z"/>
	<path class="st6" d="M413.24,194.67c0,0.46,0,0.93-0.01,1.41s-0.05,0.95-0.12,1.41c-0.07,0.46-0.18,0.89-0.33,1.3
		s-0.38,0.76-0.69,1.07c-0.35,0.35-0.79,0.63-1.32,0.83s-1.09,0.3-1.69,0.3c-0.64,0-1.18-0.09-1.62-0.29
		c-0.44-0.19-0.85-0.48-1.23-0.86v1h-3.63v-16.38h3.75v4.89c0.35-0.35,0.75-0.61,1.18-0.78c0.44-0.17,0.96-0.25,1.58-0.25
		c0.6,0,1.16,0.1,1.68,0.3c0.52,0.2,0.96,0.48,1.31,0.83c0.31,0.31,0.54,0.66,0.69,1.07s0.26,0.84,0.33,1.3
		c0.07,0.46,0.11,0.93,0.12,1.41S413.24,194.2,413.24,194.67z M409.49,194.67c0-0.45-0.02-0.85-0.05-1.22
		c-0.03-0.36-0.1-0.67-0.21-0.93c-0.11-0.25-0.27-0.45-0.48-0.59c-0.21-0.14-0.49-0.21-0.84-0.21c-0.36,0-0.64,0.07-0.85,0.21
		c-0.21,0.14-0.37,0.34-0.47,0.59s-0.18,0.56-0.21,0.93c-0.03,0.36-0.05,0.77-0.05,1.22s0.02,0.85,0.05,1.22
		c0.03,0.36,0.1,0.67,0.21,0.93c0.11,0.26,0.27,0.45,0.47,0.59c0.21,0.14,0.49,0.21,0.85,0.21c0.35,0,0.64-0.07,0.84-0.21
		c0.21-0.14,0.37-0.34,0.48-0.59c0.11-0.25,0.18-0.56,0.21-0.93C409.47,195.52,409.49,195.11,409.49,194.67z"/>
	<path class="st6" d="M414.64,200.85v-4.12h4.12v4.12H414.64z"/>
	<path class="st6" d="M436,195.84c0,0.83-0.17,1.56-0.51,2.21c-0.34,0.64-0.79,1.18-1.37,1.62c-0.58,0.44-1.25,0.77-2.01,0.99
		c-0.77,0.22-1.58,0.33-2.44,0.33c-0.63,0-1.23-0.03-1.79-0.1c-0.57-0.07-1.11-0.18-1.63-0.34c-0.52-0.16-1.01-0.38-1.47-0.66
		c-0.46-0.28-0.9-0.63-1.31-1.06l2.58-2.58c0.43,0.43,0.98,0.73,1.66,0.9c0.67,0.17,1.34,0.25,2,0.25c1.56,0,2.35-0.49,2.35-1.47
		c0-0.41-0.11-0.74-0.32-0.97c-0.23-0.23-0.59-0.38-1.08-0.44l-1.98-0.28c-1.46-0.21-2.55-0.7-3.29-1.45
		c-0.75-0.77-1.13-1.86-1.13-3.29c0-0.75,0.14-1.44,0.41-2.07c0.28-0.63,0.67-1.17,1.18-1.63s1.14-0.82,1.88-1.08
		s1.57-0.39,2.51-0.39c1.18,0,2.22,0.15,3.12,0.45c0.9,0.3,1.7,0.8,2.4,1.51l-2.53,2.53c-0.26-0.26-0.54-0.46-0.83-0.59
		c-0.29-0.13-0.58-0.23-0.85-0.29c-0.28-0.06-0.54-0.09-0.78-0.09c-0.25,0-0.46,0-0.64,0c-0.35,0-0.65,0.05-0.9,0.14
		c-0.25,0.09-0.45,0.21-0.61,0.36c-0.16,0.15-0.28,0.31-0.36,0.48c-0.08,0.18-0.12,0.36-0.12,0.54c0,0.11,0.02,0.23,0.07,0.37
		c0.05,0.14,0.13,0.27,0.25,0.39c0.11,0.11,0.25,0.21,0.42,0.3c0.18,0.09,0.41,0.15,0.7,0.18l1.98,0.28
		c1.44,0.2,2.51,0.65,3.22,1.36c0.45,0.43,0.76,0.94,0.94,1.54C435.91,194.39,436,195.07,436,195.84z"/>
	<path class="st6" d="M437.5,187.21v-2.88h3.75v2.88H437.5z M437.5,200.85v-11.89h3.75v11.89H437.5z"/>
	<path class="st6" d="M453.25,199.95c0,0.74-0.13,1.41-0.4,2.02c-0.27,0.61-0.65,1.14-1.13,1.59c-0.49,0.44-1.08,0.79-1.77,1.05
		c-0.69,0.25-1.46,0.38-2.3,0.38c-0.97,0-1.83-0.11-2.58-0.33c-0.75-0.22-1.44-0.64-2.07-1.27l2.35-2.33
		c0.29,0.29,0.61,0.49,0.95,0.61s0.73,0.17,1.16,0.17c0.4,0,0.73-0.06,0.99-0.19s0.46-0.28,0.61-0.46c0.15-0.19,0.25-0.39,0.31-0.61
		s0.09-0.44,0.09-0.64v-0.9c-0.35,0.35-0.74,0.61-1.16,0.78c-0.42,0.17-0.92,0.25-1.5,0.25c-1.19,0-2.16-0.37-2.89-1.1
		c-0.28-0.28-0.49-0.58-0.65-0.9s-0.27-0.67-0.34-1.06c-0.07-0.38-0.11-0.81-0.13-1.27s-0.02-0.97-0.02-1.54
		c0-0.57,0.01-1.08,0.02-1.54c0.02-0.46,0.06-0.88,0.13-1.26c0.07-0.38,0.18-0.74,0.34-1.06c0.16-0.32,0.38-0.62,0.65-0.9
		c0.73-0.74,1.7-1.1,2.91-1.1c0.64,0,1.17,0.09,1.57,0.29c0.41,0.19,0.8,0.48,1.18,0.86v-1h3.68V199.95z M449.46,194.2
		c0-0.32-0.01-0.63-0.03-0.93s-0.08-0.56-0.18-0.79c-0.1-0.23-0.25-0.42-0.45-0.56s-0.47-0.21-0.8-0.21c-0.35,0-0.62,0.07-0.82,0.21
		c-0.19,0.14-0.34,0.33-0.44,0.56c-0.1,0.23-0.16,0.5-0.18,0.79s-0.03,0.6-0.03,0.93c0,0.33,0.01,0.63,0.03,0.93
		s0.08,0.56,0.18,0.79c0.1,0.23,0.25,0.42,0.44,0.56c0.19,0.14,0.46,0.21,0.82,0.21c0.34,0,0.61-0.07,0.8-0.21s0.35-0.33,0.45-0.56
		c0.1-0.23,0.16-0.5,0.18-0.79S449.46,194.53,449.46,194.2z"/>
	<path class="st6" d="M461.99,200.85v-7.41c0-0.35-0.05-0.64-0.16-0.86c-0.11-0.22-0.24-0.39-0.41-0.52
		c-0.16-0.12-0.33-0.21-0.51-0.25s-0.33-0.07-0.45-0.07c-0.12,0-0.27,0.02-0.45,0.07c-0.18,0.05-0.35,0.13-0.51,0.25
		c-0.16,0.12-0.3,0.3-0.41,0.52c-0.11,0.22-0.16,0.51-0.16,0.86v7.41h-3.75v-12.37h3.67v1.01c0.38-0.38,0.83-0.67,1.35-0.86
		c0.52-0.19,1.03-0.29,1.51-0.29c0.58,0,1.11,0.09,1.57,0.28c0.47,0.18,0.87,0.45,1.21,0.78c0.54,0.54,0.88,1.1,1.02,1.68
		c0.15,0.58,0.22,1.2,0.22,1.86v7.91H461.99z"/>
	<path class="st6" d="M478.54,200.85v-1.01c-0.38,0.38-0.83,0.67-1.35,0.86s-1.03,0.29-1.51,0.29c-0.58,0-1.11-0.09-1.57-0.28
		c-0.47-0.18-0.87-0.45-1.21-0.78c-0.54-0.54-0.88-1.1-1.02-1.68c-0.14-0.58-0.22-1.2-0.22-1.86v-7.91h3.75v7.42
		c0,0.35,0.05,0.64,0.16,0.86c0.11,0.22,0.24,0.4,0.41,0.52s0.33,0.21,0.51,0.25c0.18,0.05,0.33,0.07,0.45,0.07
		c0.12,0,0.27-0.02,0.45-0.07c0.18-0.05,0.35-0.13,0.51-0.25s0.3-0.3,0.41-0.52c0.11-0.22,0.16-0.51,0.16-0.86v-7.42h3.75v12.37
		H478.54z"/>
	<path class="st6" d="M494.81,194.67c0,0.46,0,0.93-0.01,1.41s-0.05,0.95-0.11,1.41s-0.18,0.89-0.33,1.3s-0.38,0.76-0.69,1.07
		c-0.35,0.35-0.78,0.63-1.3,0.83c-0.52,0.2-1.07,0.3-1.67,0.3c-0.61,0-1.13-0.08-1.57-0.25c-0.43-0.17-0.83-0.43-1.18-0.78v4.89
		h-3.79v-16.38h3.68v1c0.38-0.38,0.79-0.67,1.22-0.86c0.43-0.19,0.97-0.29,1.61-0.29c0.59,0,1.15,0.1,1.68,0.3s0.96,0.48,1.31,0.83
		c0.3,0.31,0.53,0.66,0.69,1.07s0.26,0.84,0.33,1.3s0.11,0.93,0.11,1.41S494.81,194.2,494.81,194.67z M491.07,194.67
		c0-0.45-0.02-0.85-0.05-1.22c-0.03-0.36-0.1-0.67-0.21-0.93c-0.11-0.25-0.26-0.45-0.47-0.59c-0.21-0.14-0.48-0.21-0.83-0.21
		s-0.63,0.07-0.83,0.21c-0.21,0.14-0.36,0.34-0.47,0.59c-0.11,0.25-0.18,0.56-0.21,0.93c-0.03,0.36-0.05,0.77-0.05,1.22
		s0.02,0.85,0.05,1.22s0.1,0.67,0.21,0.93c0.11,0.26,0.26,0.45,0.47,0.59c0.21,0.14,0.48,0.21,0.83,0.21s0.63-0.07,0.83-0.21
		c0.21-0.14,0.36-0.34,0.47-0.59c0.11-0.25,0.17-0.56,0.21-0.93S491.07,195.11,491.07,194.67z"/>
	<path class="st6" d="M507.33,200.85v-7.41c0-0.35-0.05-0.64-0.16-0.86c-0.11-0.22-0.24-0.39-0.41-0.52
		c-0.16-0.12-0.33-0.21-0.51-0.25s-0.33-0.07-0.45-0.07c-0.12,0-0.27,0.02-0.45,0.07c-0.18,0.05-0.35,0.13-0.51,0.25
		c-0.16,0.12-0.3,0.3-0.41,0.52c-0.11,0.22-0.16,0.51-0.16,0.86v7.41h-3.75v-12.37h3.67v1.01c0.38-0.38,0.83-0.67,1.35-0.86
		c0.52-0.19,1.03-0.29,1.51-0.29c0.58,0,1.11,0.09,1.57,0.28c0.47,0.18,0.87,0.45,1.21,0.78c0.54,0.54,0.88,1.1,1.02,1.68
		c0.15,0.58,0.22,1.2,0.22,1.86v7.91H507.33z"/>
	<path class="st6" d="M523.13,194.67c0,0.61-0.02,1.15-0.07,1.61s-0.12,0.87-0.22,1.24c-0.1,0.37-0.24,0.71-0.41,1.01
		c-0.18,0.31-0.39,0.6-0.65,0.87c-0.37,0.4-0.87,0.76-1.51,1.09s-1.46,0.49-2.46,0.49c-1,0-1.81-0.16-2.46-0.49
		s-1.15-0.69-1.51-1.09c-0.26-0.28-0.48-0.57-0.65-0.87c-0.18-0.31-0.31-0.64-0.41-1.01s-0.17-0.78-0.22-1.24s-0.07-1-0.07-1.61
		c0-0.6,0.02-1.13,0.07-1.6s0.12-0.89,0.22-1.25s0.24-0.71,0.41-1.01c0.18-0.31,0.39-0.6,0.65-0.87c0.18-0.2,0.4-0.39,0.65-0.58
		c0.25-0.18,0.54-0.35,0.86-0.51s0.69-0.28,1.09-0.37s0.86-0.14,1.37-0.14s0.96,0.05,1.37,0.14s0.77,0.21,1.09,0.37
		s0.61,0.32,0.86,0.51c0.25,0.18,0.47,0.38,0.65,0.58c0.26,0.28,0.48,0.57,0.65,0.87c0.18,0.31,0.31,0.64,0.41,1.01
		c0.1,0.37,0.17,0.79,0.22,1.25S523.13,194.07,523.13,194.67z M519.38,194.67c0-0.62-0.03-1.14-0.09-1.58
		c-0.06-0.43-0.22-0.77-0.46-1.02c-0.23-0.23-0.57-0.35-1.02-0.35s-0.79,0.12-1.02,0.35c-0.25,0.25-0.4,0.59-0.46,1.02
		c-0.06,0.43-0.09,0.96-0.09,1.58c0,0.62,0.03,1.14,0.09,1.58c0.06,0.43,0.22,0.77,0.46,1.02c0.23,0.23,0.57,0.35,1.02,0.35
		s0.79-0.12,1.02-0.35c0.25-0.25,0.4-0.59,0.46-1.02C519.35,195.81,519.38,195.28,519.38,194.67z"/>
	<path class="st6" d="M537.25,200.85h-3.01l-2.23-6.79l-2.23,6.79h-3.01l-3.73-12.37h3.98l1.54,6.42l2.14-6.42h2.62l2.14,6.42
		l1.54-6.42h3.98L537.25,200.85z"/>
	<path class="st6" d="M546.08,195.42h-2.71l-1.01-10.95h4.74L546.08,195.42z M542.79,200.85v-3.68h3.84v3.68H542.79z"/>
</g>
</svg>
